<?xml version="1.0" encoding="utf-8"?>
<!-- Generator: Adobe Illustrator 16.0.0, SVG Export Plug-In . SVG Version: 6.00 Build 0)  -->
<!DOCTYPE svg PUBLIC "-//W3C//DTD SVG 1.1//EN" "http://www.w3.org/Graphics/SVG/1.1/DTD/svg11.dtd">
<svg version="1.1" id="Layer_1" xmlns="http://www.w3.org/2000/svg" xmlns:xlink="http://www.w3.org/1999/xlink" x="0px" y="0px"
	 width="502.064px" height="173.66px" viewBox="0 0 502.064 173.66" enable-background="new 0 0 502.064 173.66"
	 xml:space="preserve">
<g>
	<g>
		<path fill="#4D90FE" d="M76.146,171.309c-49.254,5.029-70.614-34.172-70.614-77.9c0-54.531,36.187-90.717,63.076-91.471
			c34.931-1.006,39.705,28.898,35.182,47.243c-2.765,11.059-16.837,15.581-26.889,9.55c0,0,1.005-2.261,1.758-3.518
			C83.686,38.877,84.44,8.723,64.336,9.225C45.237,9.979,31.667,39.381,31.667,87.127c0,35.434,13.57,78.656,47.496,75.138
			c29.652-3.016,48.249-37.694,50.51-63.075c0.251-2.263,6.534-6.786,6.283-1.256C134.699,130.853,109.568,167.793,76.146,171.309z"
			/>
		<path fill="#4D90FE" d="M225.659,95.169c-3.015,32.664-11.559,57.799-27.39,59.055c-9.8,0.754-18.094-8.795-21.612-24.629
			c-4.021,13.823-10.555,22.62-19.601,24.374c-13.821,2.767-33.925-8.037-32.668-38.696c1.508-37.443,37.946-54.531,57.294-37.443
			v0.251c6.786-8.795,16.335-6.031,19.35-3.015c-0.251,1.257-1.759,17.842-1.759,34.678c0,22.869,0.754,34.429,5.781,34.429
			c6.785,0,12.313-25.885,14.323-47.998C219.628,93.914,226.414,89.388,225.659,95.169z M175.149,98.437
			c0.504-5.778,1.508-10.305,3.016-14.074c-13.319-6.534-25.632-0.504-28.9,23.371c-3.267,24.878,3.268,37.694,10.806,36.438
			c7.79-1.26,12.565-19.855,14.574-44.983C174.646,98.938,174.898,98.938,175.149,98.437z"/>
		<path fill="#4D90FE" d="M311.593,95.42c-3.268,32.415-11.813,57.548-27.391,58.804c-10.05,0.754-19.602-6.534-22.87-26.887
			c-4.776,15.829-11.808,26.134-21.611,26.887c-12.815,1.003-25.129-11.561-23.873-47.996c0.251-13.319,0.502-23.372,0.502-31.916
			c-5.025-1.508-8.794-3.519-10.302-6.031c-3.769-6.283,1.256-10.052,1.256-9.55c0,1.005,3.268,2.262,8.796,3.017
			c-0.251-12.815-1.257-19.099-2.011-25.633c-0.251-1.508-0.754-3.769-0.754-3.769c23.119-8.042,31.16-0.252,29.904,30.91
			c5.78,0,11.558,0,17.59-0.503c-0.251-14.071-1.255-21.359-2.013-28.145c-0.252-1.257-0.997-3.769-0.997-3.769
			c22.611-7.79,30.402-0.753,30.152,28.146c3.519-0.754,7.035-1.759,10.299-3.016c0.755,0,1.766-0.502,1.766-0.502
			c4.517,9.801,4.267,23.622-13.572,24.878c-4.776,52.269-1.764,63.831,4.269,63.831c6.785,0,12.565-25.885,14.322-47.999
			C305.312,93.914,311.843,89.388,311.593,95.42z M260.58,97.43c0-6.283,0.251-12.063,0.251-17.088
			c-6.282-0.251-12.565-0.502-18.596-1.256c-4.773,51.013-2.261,65.086,4.02,65.086C252.79,144.172,258.569,119.292,260.58,97.43z"
			/>
		<path fill="#4D90FE" d="M352.798,95.169c-3.013,32.664-11.557,58.301-27.14,59.055c-13.32,0.503-23.371-16.083-23.871-42.217
			c-1.006-35.434,16.333-41.466,26.634-31.162c-0.25,1.256-2.007,9.045-2.007,28.898c0,22.868,1.007,34.429,5.776,34.429
			c6.784,0,12.568-25.885,14.322-47.998C346.767,93.914,353.3,89.388,352.798,95.169z M320.383,63.505
			c-7.037,0-13.319-7.789-13.57-15.831c-0.508-11.309,7.789-16.837,18.096-15.078c10.551,1.758,14.57,8.794,11.809,17.841
			C334.453,58.229,327.421,63.757,320.383,63.505z"/>
		<path fill="#4D90FE" d="M403.306,114.769c12.814,1.005,19.343-6.282,22.106-15.076c0.757-2.263,8.294-4.774,6.29,0.504
			c-3.521,10.551-13.573,22.865-31.164,21.608c-8.795,20.106-23.372,32.419-33.422,32.419c-14.829,0-23.622-16.083-24.123-42.217
			c-1.006-35.938,15.076-48.501,26.384-36.942c-0.25,1.257-1.757,17.843-1.757,34.678c0,22.868,1.006,34.429,6.782,34.429
			c5.028,0,13.571-9.298,19.354-23.623c-22.115-7.791-20.608-48.5-5.276-54.029c17.588-6.534,24.372,15.078,16.583,42.721
			L403.306,114.769z M396.269,113.01l1.255-4.523c2.765-11.307-0.249-20.104-7.037-17.842
			C383.198,92.907,385.965,107.983,396.269,113.01z"/>
		<path fill="#4D90FE" d="M440.993,131.104c3.515,9.802,10.048,14.828,20.103,13.068c11.558-2.011,26.885-19.349,29.147-44.983
			c0.256-2.262,6.54-6.785,6.281-1.255c-0.998,32.416-19.852,52.268-38.694,56.035c-21.612,4.525-45.233-9.546-44.232-38.694
			c1.006-29.401,23.123-42.721,39.96-42.721c14.569,0,25.883,11.308,21.858,25.384C470.896,113.01,453.051,124.569,440.993,131.104z
			 M439.229,125.074c5.531-4.273,9.802-10.306,12.317-18.847c4.017-16.336,2.013-28.146-1.76-28.146
			c-5.026,0-10.808,12.565-11.561,31.16C438.225,115.272,438.476,120.297,439.229,125.074z"/>
	</g>
</g>
</svg>
